<svg width="1440" height="1080" viewBox="0 0 1440 1080" fill="none" xmlns="http://www.w3.org/2000/svg" role="img" aria-labelledby="title desc">
  <title id="title">Placarium brand board</title>
  <desc id="desc">Board com assets principais de marca do Placarium em dark e light mode.</desc>
  <rect width="1440" height="1080" fill="#1C1917"/>
  <text x="80" y="96" fill="#F0EBE4" font-family="Inter, Geist, Arial, sans-serif" font-size="44" font-weight="650">Placarium Brand System</text>
  <text x="80" y="134" fill="#A89F94" font-family="Inter, Geist, Arial, sans-serif" font-size="20">Versao A: grafico minimalista com P subliminar, sem slogan.</text>

  <rect x="80" y="184" width="610" height="240" rx="28" fill="#141110"/>
  <g transform="translate(136 267)">
    <rect x="0" y="0" width="18" height="74" rx="9" fill="#F0EBE4"/>
    <rect x="30" y="0" width="18" height="74" rx="9" fill="#FF6B35"/>
    <rect x="60" y="0" width="18" height="44" rx="9" fill="#FF6B35"/>
  </g>
  <text x="236" y="317" fill="#F0EBE4" font-family="Inter, Geist, Arial, sans-serif" font-size="48" font-weight="500">placarium</text>
  <text x="112" y="388" fill="#6E665C" font-family="Inter, Geist, Arial, sans-serif" font-size="16">Logo completa dark</text>

  <rect x="750" y="184" width="610" height="240" rx="28" fill="#FAF7F2"/>
  <g transform="translate(806 267)">
    <rect x="0" y="0" width="18" height="74" rx="9" fill="#1C1917"/>
    <rect x="30" y="0" width="18" height="74" rx="9" fill="#D9480F"/>
    <rect x="60" y="0" width="18" height="44" rx="9" fill="#D9480F"/>
  </g>
  <text x="906" y="317" fill="#1C1917" font-family="Inter, Geist, Arial, sans-serif" font-size="48" font-weight="500">placarium</text>
  <text x="782" y="388" fill="#57534E" font-family="Inter, Geist, Arial, sans-serif" font-size="16">Logo completa light</text>

  <rect x="80" y="488" width="280" height="280" rx="36" fill="#141110"/>
  <g transform="translate(150 588)">
    <rect x="0" y="0" width="32" height="132" rx="16" fill="#F0EBE4"/>
    <rect x="54" y="0" width="32" height="132" rx="16" fill="#FF6B35"/>
    <rect x="108" y="0" width="32" height="80" rx="16" fill="#FF6B35"/>
  </g>
  <text x="80" y="814" fill="#A89F94" font-family="Inter, Geist, Arial, sans-serif" font-size="18">Simbolo dark</text>

  <rect x="420" y="488" width="280" height="280" rx="36" fill="#FAF7F2"/>
  <g transform="translate(490 588)">
    <rect x="0" y="0" width="32" height="132" rx="16" fill="#1C1917"/>
    <rect x="54" y="0" width="32" height="132" rx="16" fill="#D9480F"/>
    <rect x="108" y="0" width="32" height="80" rx="16" fill="#D9480F"/>
  </g>
  <text x="420" y="814" fill="#A89F94" font-family="Inter, Geist, Arial, sans-serif" font-size="18">Simbolo light</text>

  <rect x="800" y="488" width="220" height="220" rx="52" fill="#141110"/>
  <g transform="translate(858 546)">
    <rect x="0" y="0" width="24" height="104" rx="12" fill="#F0EBE4"/>
    <rect x="40" y="0" width="24" height="104" rx="12" fill="#FF6B35"/>
    <rect x="80" y="0" width="24" height="62" rx="12" fill="#FF6B35"/>
  </g>
  <text x="800" y="754" fill="#A89F94" font-family="Inter, Geist, Arial, sans-serif" font-size="18">App icon dark</text>

  <rect x="1080" y="488" width="220" height="220" rx="52" fill="#FAF7F2"/>
  <g transform="translate(1138 546)">
    <rect x="0" y="0" width="24" height="104" rx="12" fill="#1C1917"/>
    <rect x="40" y="0" width="24" height="104" rx="12" fill="#D9480F"/>
    <rect x="80" y="0" width="24" height="62" rx="12" fill="#D9480F"/>
  </g>
  <text x="1080" y="754" fill="#A89F94" font-family="Inter, Geist, Arial, sans-serif" font-size="18">App icon light</text>

  <text x="80" y="902" fill="#F0EBE4" font-family="Inter, Geist, Arial, sans-serif" font-size="24" font-weight="650">Core palette</text>
  <g transform="translate(80 932)">
    <rect x="0" y="0" width="120" height="72" rx="12" fill="#141110" stroke="#3A322A"/>
    <rect x="136" y="0" width="120" height="72" rx="12" fill="#1C1917" stroke="#3A322A"/>
    <rect x="272" y="0" width="120" height="72" rx="12" fill="#262019" stroke="#3A322A"/>
    <rect x="408" y="0" width="120" height="72" rx="12" fill="#F0EBE4"/>
    <rect x="544" y="0" width="120" height="72" rx="12" fill="#FF6B35"/>
    <rect x="680" y="0" width="120" height="72" rx="12" fill="#D9480F"/>
    <text x="0" y="100" fill="#A89F94" font-family="Inter, Geist, Arial, sans-serif" font-size="14">#141110</text>
    <text x="136" y="100" fill="#A89F94" font-family="Inter, Geist, Arial, sans-serif" font-size="14">#1C1917</text>
    <text x="272" y="100" fill="#A89F94" font-family="Inter, Geist, Arial, sans-serif" font-size="14">#262019</text>
    <text x="408" y="100" fill="#A89F94" font-family="Inter, Geist, Arial, sans-serif" font-size="14">#F0EBE4</text>
    <text x="544" y="100" fill="#A89F94" font-family="Inter, Geist, Arial, sans-serif" font-size="14">#FF6B35</text>
    <text x="680" y="100" fill="#A89F94" font-family="Inter, Geist, Arial, sans-serif" font-size="14">#D9480F</text>
  </g>
</svg>
